HIERARCHY
ROOT hip
{
	OFFSET 0.000000 0.000000 0.000000 
	CHANNELS 6 Xposition Yposition Zposition Xrotation Zrotation Yrotation
	JOINT abdomen
	{
		OFFSET 0.000000 3.402643 0.000000 
		CHANNELS 3 Xrotation Zrotation Yrotation
		JOINT chest
		{
			OFFSET 0.000000 8.438565 -0.680529 
			CHANNELS 3 Xrotation Zrotation Yrotation
			JOINT neck
			{
				OFFSET 0.000000 10.207942 -0.272212 
				CHANNELS 3 Xrotation Zrotation Yrotation
				JOINT head
				{
					OFFSET 0.000000 3.130431 0.000000 
					CHANNELS 3 Xrotation Zrotation Yrotation
					End Site
					{
						OFFSET 0.000000 3.130435 0.000000 
					}
				}
			}
			JOINT lCollar
			{
				OFFSET 3.470700 6.669187 -0.816635 
				CHANNELS 3 Yrotation Zrotation Xrotation
				JOINT lShldr
				{
					OFFSET 3.198488 0.000000 0.000000 
					CHANNELS 3 Zrotation Yrotation Xrotation
					JOINT lForeArm
					{
						OFFSET 10.139888 0.000000 0.000000 
						CHANNELS 3 Yrotation Zrotation Xrotation
						JOINT lHand
						{
							OFFSET 8.370511 0.000000 0.000000 
							CHANNELS 3 Zrotation Yrotation Xrotation
							End Site
							{
								OFFSET 4.083176 0.000000 0.000000 
							}
						}
					}
				}
			}
			JOINT rCollar
			{
				OFFSET -3.470700 6.669187 -0.816635 
				CHANNELS 3 Yrotation Zrotation Xrotation
				JOINT rShldr
				{
					OFFSET -3.198488 0.000000 0.000000 
					CHANNELS 3 Zrotation Yrotation Xrotation
					JOINT rForeArm
					{
						OFFSET -10.139888 0.000000 0.000000 
						CHANNELS 3 Yrotation Zrotation Xrotation
						JOINT rHand
						{
							OFFSET -8.370511 0.000000 0.000000 
							CHANNELS 3 Zrotation Yrotation Xrotation
							End Site
							{
								OFFSET -4.083176 0.000000 0.000000 
							}
						}
					}
				}
			}
		}
	}
	JOINT lThigh
	{
		OFFSET 5.308129 -1.633274 1.361059 
		CHANNELS 3 Xrotation Zrotation Yrotation
		JOINT lShin
		{
			OFFSET -2.041588 -20.007561 0.000000 
			CHANNELS 3 Xrotation Zrotation Yrotation
			JOINT lFoot
			{
				OFFSET 0.000000 -19.190928 -1.224953 
				CHANNELS 3 Xrotation Yrotation Zrotation
				End Site
				{
					OFFSET 0.000000 -2.449906 4.627600 
				}
			}
		}
	}
	JOINT rThigh
	{
		OFFSET -5.308129 -1.633274 1.361059 
		CHANNELS 3 Xrotation Zrotation Yrotation
		JOINT rShin
		{
			OFFSET 2.041588 -20.007561 0.000000 
			CHANNELS 3 Xrotation Zrotation Yrotation
			JOINT rFoot
			{
				OFFSET 0.000000 -19.190928 -1.224953 
				CHANNELS 3 Xrotation Yrotation Zrotation
				End Site
				{
					OFFSET 0.000000 -2.449906 4.627600 
				}
			}
		}
	}
}
MOTION
Frames: 15
Frame Time: 0.011111
13.289241 52.329628 56.344292 11.934051 1.343552 -64.929649 36.393166 9.710135 20.155573 -23.333052 -0.709858 3.916703 -11.458180 2.509057 4.569917 23.943569 -13.242310 6.955597 2.971642 -4.490881 1.927035 -73.714966 -29.384680 25.419844 -54.099251 8.523007 9.840449 8.524705 12.647240 -44.251358 -4.704987 0.510038 2.448925 70.043861 33.462105 16.265841 45.044018 -6.403393 6.225543 -8.534408 -12.637552 52.103374 -39.455624 21.587620 1.508726 32.139370 -5.205792 -5.138894 -24.722956 10.268183 1.862634 2.255012 5.552032 -9.742452 26.876837 5.505463 4.421556 -34.159393 -11.510421 -5.570417 
13.110420 52.375824 56.502060 10.997665 2.109874 -64.813637 35.950420 8.150328 19.218851 -23.398912 -0.332960 3.920668 -11.504390 2.503809 4.620944 23.986906 -13.047429 7.116159 2.971642 -4.490881 1.927035 -73.655678 -29.112698 25.003517 -54.035534 8.509840 9.810219 8.524705 12.647240 -44.231819 -4.704987 0.510038 2.448925 70.003571 33.610783 16.942751 45.013084 -6.394323 6.217390 -8.534408 -12.637552 52.738140 -39.448528 20.349113 1.351030 31.900976 -5.216046 -5.100582 -24.931343 12.850476 2.849842 2.137304 4.272559 -9.690392 26.404594 5.524437 4.372945 -33.909569 -11.847376 -5.655768 
12.889488 52.236916 56.607651 13.157336 0.562400 -64.551514 36.770283 10.360547 20.912926 -23.342602 -0.733001 3.996790 -11.600723 2.397405 4.643591 24.102867 -12.793587 7.184707 2.971642 -4.490881 1.927035 -73.611855 -28.996630 24.694918 -53.825066 8.475090 9.723138 8.524705 12.647240 -44.046276 -4.704987 0.510038 2.448925 70.014351 33.620045 17.812357 45.301476 -6.482627 6.329831 -8.534408 -12.637552 53.275246 -40.460629 22.730160 -1.208704 31.830639 -5.225503 -5.087276 -25.650188 13.964307 3.470534 3.680766 7.194375 -8.778139 26.032543 5.544266 4.305004 -34.334553 -12.388753 -6.084702 
12.752466 52.280910 56.834873 12.156520 1.789002 -64.371086 35.874352 8.746323 19.863239 -23.369642 -0.387958 4.002524 -11.500360 2.481110 4.705617 24.082233 -12.977693 7.287630 2.971642 -4.490881 1.927035 -73.707436 -28.886602 24.287607 -53.508705 8.418591 9.595782 8.524705 12.647240 -43.860729 -4.704987 0.510038 2.448925 70.005745 33.786758 18.295372 45.301476 -6.482627 6.329831 -8.534408 -12.637552 52.249859 -40.700424 20.936359 -2.041921 31.630796 -5.240126 -5.063119 -26.023130 17.076929 4.678536 3.016620 5.436296 -9.842644 25.761156 5.553914 4.272762 -33.709324 -12.315947 -5.799702 
12.608846 52.276833 57.052654 12.194577 2.134764 -64.475670 35.559219 8.339007 19.890398 -23.330404 -0.404766 4.081546 -11.399168 2.578035 4.785139 23.988596 -13.125868 7.447239 2.971642 -4.490881 1.927035 -73.782463 -28.757580 23.743011 -53.245510 8.370111 9.479894 8.524705 12.647240 -44.036510 -4.704987 0.510038 2.448925 70.167747 34.072376 17.810425 45.156860 -6.435216 6.270582 -8.534408 -12.637552 51.546738 -41.052559 20.585226 -3.197815 31.709696 -5.240136 -5.080672 -27.098064 19.303198 5.847684 3.065797 5.155236 -10.246078 25.377687 5.572921 4.232762 -32.839722 -12.914146 -5.734768 
12.451080 52.278713 57.275475 12.325310 2.359283 -64.646118 35.333668 8.061088 19.994913 -23.282526 -0.607502 4.173148 -11.298167 2.534878 4.863502 23.847519 -12.787842 7.671747 2.971642 -4.490881 1.927035 -73.680084 -28.672386 23.130020 -52.919621 8.311892 9.351314 8.524705 12.647240 -44.349014 -4.704987 0.510038 2.448925 70.573227 34.355881 16.985018 45.085457 -6.417960 6.241972 -8.534408 -12.637552 51.097511 -41.201450 20.630642 -3.767800 31.481895 -5.240146 -5.059868 -28.949129 19.979115 6.908895 3.045436 5.005507 -10.311451 25.369928 5.563375 4.220221 -32.612381 -12.927979 -5.638888 
12.272890 52.232830 57.474407 12.780110 2.523695 -64.508369 34.971611 8.119569 20.108133 -23.253632 -0.685592 4.207362 -11.130939 2.477659 4.903901 23.625948 -12.522421 7.818745 2.971642 -4.490881 1.927035 -73.637650 -28.595362 22.572250 -52.509972 8.233968 9.175208 8.524705 12.647240 -44.573620 -4.704987 0.510038 2.448925 70.824646 34.607697 16.250395 44.920490 -6.366412 6.182173 -8.534408 -12.637552 49.974464 -41.664860 20.925585 -3.783382 31.423143 -5.235567 -5.053475 -31.414085 19.214382 7.812353 3.083573 5.256130 -10.234280 25.218977 5.572431 4.179775 -32.920307 -12.473157 -5.564204 
12.088728 52.208633 57.682457 12.781368 2.600449 -64.413605 34.890812 7.757988 20.046005 -23.252563 -0.545882 4.246809 -11.257680 2.517922 4.896548 23.749893 -12.697826 7.790147 2.971642 -4.490881 1.927035 -73.754105 -28.514082 22.106920 -52.214359 8.169649 9.052164 8.524705 12.647240 -44.710339 -4.704987 0.510038 2.448925 70.642006 34.606873 17.232746 45.147137 -6.436606 6.269187 -8.534408 -12.637552 51.107285 -41.495285 20.845789 -3.611015 31.481899 -5.240137 -5.059865 -34.462093 17.725683 8.677295 3.397541 5.193172 -9.607555 24.974705 5.592089 4.161819 -33.470505 -12.371825 -5.724120 
11.886338 52.215233 57.904015 12.432892 2.642417 -64.166336 34.963917 7.152160 19.518286 -23.290684 -0.361223 4.185701 -11.448358 2.890135 4.971460 23.920408 -13.183810 7.902764 2.971642 -4.490881 1.927035 -73.678169 -28.330484 21.904978 -52.036621 8.137166 8.978995 8.524705 12.647240 -44.358776 -4.704987 0.510038 2.448925 70.716995 34.661896 17.729769 45.517006 -6.539029 6.401616 -8.534408 -12.637552 51.956890 -40.962753 20.428127 -3.020713 31.650591 -5.240182 -5.065765 -36.634148 15.607153 8.759385 3.864537 4.858531 -8.834144 24.662123 5.602043 4.135718 -34.145443 -12.666711 -6.166822 
11.664776 52.207062 58.128094 12.878181 2.454124 -63.781681 34.875462 7.455262 19.461725 -23.271559 -0.385460 4.138257 -11.219806 3.168078 5.076405 23.599152 -13.353224 8.192627 2.971642 -4.490881 1.927035 -73.580750 -28.098606 21.829454 -51.784397 8.084413 8.876560 8.524705 12.647240 -43.977917 -4.704987 0.510038 2.448925 70.848389 34.655449 17.940760 45.847252 -6.638769 6.533857 -8.534408 -12.637552 52.122906 -40.947742 20.933182 -1.841329 31.960705 -5.215999 -5.096080 -37.407276 12.622905 7.567322 4.440626 5.356751 -8.492641 24.287764 5.622739 4.077355 -34.445549 -13.069162 -6.485469 
11.462701 52.176895 58.352161 13.412101 2.223670 -63.650333 34.819328 7.730841 20.062918 -23.290905 -0.453969 4.260571 -10.812367 2.825305 5.054581 23.041639 -12.952549 8.203305 2.971642 -4.490881 1.927035 -73.722618 -27.889639 22.009544 -51.471004 8.025115 8.751801 8.524705 12.647240 -44.075577 -4.704987 0.510038 2.448925 70.793228 34.873386 17.353027 45.734028 -6.608901 6.498705 -8.534408 -12.637552 51.956890 -40.992943 21.609776 -0.788770 32.258438 -5.205961 -5.139672 -38.180309 9.673098 6.222614 4.979666 5.858145 -8.366091 23.893274 5.641620 4.015747 -34.146107 -13.340871 -6.482223 
11.259368 52.168716 58.607979 13.430323 2.352327 -63.616062 34.578648 7.405919 20.581034 -23.300013 -0.489896 4.439359 -10.593787 2.288446 4.956633 22.910385 -12.444645 7.986370 2.971642 -4.490881 1.927035 -73.896576 -27.748184 22.268600 -51.125374 7.952190 8.610212 8.524705 12.647240 -44.563854 -4.704987 0.510038 2.448925 70.501190 34.623535 16.611120 45.878246 -6.647386 6.542331 -8.534408 -12.637552 52.425640 -40.783829 21.558828 -0.270558 32.488396 -5.186791 -5.164237 -35.927444 13.730552 7.471951 5.269192 5.657913 -8.265876 23.619905 5.651581 3.993028 -33.865196 -13.579411 -6.466605 
11.053834 52.208633 58.857822 12.918338 2.641170 -63.457260 34.429764 6.512479 20.468880 -23.512926 -0.348615 4.539844 -10.479792 1.764866 4.923177 23.105703 -11.925267 7.885575 2.971642 -4.490881 1.927035 -74.069160 -27.567671 22.044611 -50.811104 7.882617 8.480139 8.524705 12.647240 -45.345108 -4.704987 0.510038 2.448925 70.463470 34.380806 15.651856 46.218487 -6.743471 6.677567 -8.534408 -12.637552 52.308453 -40.161617 20.905912 0.481684 32.548878 -5.176479 -5.177131 -37.653469 11.032044 6.789211 5.416498 4.917756 -7.960731 23.521070 5.647070 3.963949 -34.163826 -13.772596 -6.717880 
10.861815 52.235973 59.130299 12.631062 2.825968 -62.857815 34.356380 6.172176 18.365650 -23.631704 -0.257341 4.064394 -11.045719 2.937214 5.251667 23.804340 -12.425318 8.661379 2.971642 -4.490881 1.927035 -73.642761 -27.295803 20.123783 -50.779873 7.876847 8.468596 8.524705 12.647240 -45.442757 -4.704987 0.510038 2.448925 71.432938 34.880932 17.060598 46.104568 -6.706954 6.625181 -8.534408 -12.637552 51.898296 -39.833588 20.234339 0.846411 32.536785 -5.192200 -5.179747 -35.360664 14.098451 7.403305 5.504832 4.459725 -7.758399 23.561825 5.641715 3.985890 -34.720570 -13.884181 -6.999057 
10.639626 52.234402 59.395542 12.539168 2.906572 -62.683167 34.201946 5.791434 18.595526 -23.669493 -0.148396 4.174106 -10.300231 3.229385 5.200662 22.821327 -13.395451 8.524106 2.971642 -4.490881 1.927035 -73.756859 -27.146194 20.640356 -50.402260 7.786870 8.312124 8.524705 12.647240 -45.472057 -4.704987 0.510038 2.448925 71.391220 34.589500 16.013397 46.641529 -6.856955 6.833138 -8.534408 -12.637552 51.527203 -39.446037 20.054819 1.448687 32.517735 -5.186903 -5.176576 -34.425629 14.266104 7.070621 5.622402 4.226002 -7.154361 23.701973 5.642484 4.009009 -35.125038 -14.262193 -7.360617 
